G04 DipTrace 3.3.1.1*
G04 bottom.gbr*
%MOMM*%
G04 #@! TF.FileFunction,Copper,L2,Bot*
G04 #@! TF.Part,Single*
%AMOUTLINE0*
4,1,4,
1.0,-3.0,
1.0,3.0,
-3.0,3.0,
-3.0,-3.0,
1.0,-3.0,
0*%
%AMOUTLINE3*
4,1,204,
-0.0452,3.2014,
-0.1616,3.1817,
-0.2696,3.1412,
-0.3669,3.0823,
-0.4514,3.007,
-0.5209,2.9175,
-0.5732,2.8159,
-0.6062,2.7045,
-0.6177,2.5854,
-0.6122,2.5025,
-0.596,2.4229,
-0.57,2.3475,
-0.5348,2.2768,
-0.44,2.1527,
-0.3172,2.0561,
-0.3172,1.8901,
-0.3068,1.8217,
-0.2839,1.7842,
-0.2609,1.7684,
-0.2505,1.7652,
-0.2505,1.6066,
-0.9386,1.5748,
-0.9386,1.6171,
-0.9958,1.674,
-1.0525,1.6171,
-1.0525,1.5694,
-1.1892,1.5625,
-1.1892,1.6171,
-1.2464,1.674,
-1.3033,1.6171,
-1.3033,1.5566,
-1.4713,1.5459,
-1.5277,1.5196,
-1.5512,1.4728,
-1.5553,1.4281,
-1.5537,1.4082,
-1.4919,1.2935,
-1.3033,1.2844,
-1.3033,1.2298,
-1.2464,1.1729,
-1.1892,1.2298,
-1.1892,1.2797,
-1.0525,1.2741,
-1.0525,1.2298,
-0.9958,1.1729,
-0.9386,1.2298,
-0.9386,1.2696,
-0.2505,1.1707,
-0.2505,-1.9684,
-0.2622,-2.0145,
-0.2957,-2.0678,
-0.3499,-2.1216,
-0.4236,-2.1691,
-0.5156,-2.2035,
-0.6247,-2.218,
-0.7498,-2.2058,
-0.8896,-2.1602,
-1.1864,-2.0088,
-1.4573,-1.8401,
-1.653,-1.6937,
-1.7246,-1.6094,
-1.626,-1.5734,
-1.5275,-1.5305,
-1.5247,-1.4955,
-1.5471,-1.4713,
-1.6196,-1.4383,
-1.7673,-1.3771,
-1.9687,-1.2628,
-2.1648,-1.1085,
-2.3241,-0.9511,
-2.415,-0.8277,
-2.4368,-0.7914,
-2.4559,-0.7745,
-2.4721,-0.7738,
-2.4849,-0.7859,
-2.499,-0.8358,
-2.4956,-0.8984,
-2.4773,-1.0414,
-2.4308,-1.3118,
-2.3886,-1.4771,
-2.3294,-1.6529,
-2.25,-1.8322,
-2.1469,-2.0079,
-2.1062,-2.05,
-2.067,-2.0677,
-2.0344,-2.0602,
-2.0132,-2.0267,
-1.9934,-1.9862,
-1.9637,-1.9624,
-1.9274,-1.9621,
-1.7614,-2.0865,
-1.5045,-2.2466,
-1.1815,-2.4286,
-0.8569,-2.5889,
-0.5778,-2.7315,
-0.3579,-2.8743,
-0.203,-2.9983,
-0.1191,-3.0843,
-0.0839,-3.1358,
-0.0604,-3.1722,
-0.0365,-3.194,
0.0001,-3.2014,
0.0365,-3.194,
0.0603,-3.1722,
0.0839,-3.1358,
0.1192,-3.0843,
0.203,-2.9983,
0.3578,-2.8743,
0.5778,-2.7315,
0.8571,-2.5889,
1.1816,-2.4286,
1.5046,-2.2466,
1.7615,-2.0865,
1.9274,-1.9621,
1.9636,-1.9624,
1.9934,-1.9862,
2.0133,-2.0267,
2.0345,-2.0602,
2.0672,-2.0677,
2.1064,-2.05,
2.147,-2.0079,
2.2499,-1.8322,
2.3293,-1.6529,
2.3884,-1.4771,
2.4306,-1.3118,
2.4773,-1.0414,
2.4957,-0.8984,
2.499,-0.8358,
2.4848,-0.7859,
2.472,-0.7738,
2.4558,-0.7745,
2.4366,-0.7914,
2.4148,-0.8277,
2.3239,-0.9511,
2.1647,-1.1085,
1.9687,-1.2628,
1.7674,-1.3771,
1.6197,-1.4383,
1.5472,-1.4713,
1.5247,-1.4955,
1.5274,-1.5305,
1.626,-1.5734,
1.7245,-1.6094,
1.653,-1.6937,
1.4573,-1.8401,
1.1864,-2.0088,
0.8895,-2.1602,
0.7497,-2.2058,
0.6247,-2.218,
0.5156,-2.2035,
0.4236,-2.1691,
0.3499,-2.1216,
0.2957,-2.0678,
0.2622,-2.0145,
0.2506,-1.9684,
0.2506,1.169,
0.9751,1.2711,
0.9751,1.2298,
1.0322,1.1729,
1.0889,1.2298,
1.0889,1.2756,
1.2257,1.2811,
1.2257,1.2298,
1.2826,1.1729,
1.3397,1.2298,
1.3397,1.2859,
1.4915,1.2935,
1.5382,1.353,
1.5535,1.4082,
1.5552,1.4281,
1.551,1.4728,
1.5276,1.5196,
1.4712,1.5459,
1.3397,1.5545,
1.3397,1.6171,
1.2826,1.674,
1.2257,1.6171,
1.2257,1.5606,
1.0889,1.5675,
1.0889,1.6171,
1.0322,1.674,
0.9751,1.6171,
0.9751,1.5731,
0.2506,1.6066,
0.2506,1.7652,
0.261,1.7684,
0.2839,1.7842,
0.3069,1.8217,
0.3173,1.8901,
0.3173,2.0562,
0.4399,2.1528,
0.5348,2.2769,
0.5699,2.3475,
0.5959,2.4229,
0.6121,2.5025,
0.6176,2.5854,
0.6061,2.7045,
0.5731,2.8159,
0.5208,2.9175,
0.4513,3.007,
0.3668,3.0823,
0.2695,3.1412,
0.1614,3.1817,
0.0449,3.2014,
-0.0452,3.2014,
0*%
G04 #@! TA.AperFunction,Conductor*
%ADD13C,0.2*%
%ADD14C,0.9*%
%ADD16R,2.25X1.8*%
%ADD17R,1.5X1.3*%
G04 #@! TA.AperFunction,ComponentPad*
%ADD19C,1.5*%
%ADD20R,1.3X1.5*%
%ADD22R,2.15X0.95*%
%ADD24R,3.45X1.0*%
%ADD27R,0.9X4.0*%
G04 #@! TA.AperFunction,ComponentPad*
%ADD32O,1.65X4.0*%
%ADD33R,2.0X1.0*%
G04 #@! TA.AperFunction,ViaPad*
%ADD34C,0.8*%
%ADD75OUTLINE0*%
%ADD78OUTLINE3*%
%FSLAX35Y35*%
G04*
G71*
G90*
G75*
G01*
G04 Bottom*
%LPD*%
X2694303Y1287170D2*
D13*
X2712453D1*
Y1197883D1*
X3109370D1*
X3157000Y1245513D1*
X3105150Y1193663D1*
X2966480D1*
X3157000Y1245513D2*
Y1771477D1*
Y3468247D1*
X3045863Y3579383D1*
X2125017D1*
Y3595260D1*
X1918620D1*
X1442320D1*
X2125017Y3595420D2*
Y3595260D1*
X1870017Y5786207D2*
Y5766047D1*
D14*
X1870990D1*
Y5452830D1*
D13*
Y5230557D1*
X2380017D1*
Y5786207D1*
X1505827Y1658307D2*
X1351420D1*
X1317520Y1692207D1*
X1235017D1*
X1894977Y1614417D2*
X1505827D1*
Y1658307D1*
X1235017Y1692207D2*
X1077157D1*
Y1287170D1*
X1554303D1*
X3108827Y1771477D2*
X3157000D1*
X2601317Y5770363D2*
Y5777553D1*
X2608507Y5770363D1*
X2680700D1*
Y5754487D1*
X2728330Y5802117D1*
Y5772993D1*
X1874487Y2325130D2*
X2125017D1*
X2363167Y1451910D2*
X2426673D1*
X2537810D1*
X2617193Y1531293D1*
Y2198113D1*
X2156770D1*
X2033073Y2074417D1*
X1894977D1*
X2966480Y1483663D2*
X2834470D1*
X2755523Y1562610D1*
Y1562970D1*
X2426673Y1451910D2*
Y1107080D1*
X2406340Y1086747D1*
X2015490D1*
X1998003Y1104233D1*
Y1166130D1*
X2982357Y5772993D2*
X3011480D1*
X3014110Y5770363D1*
X3125247D1*
X1283553Y5582993D2*
Y5579843D1*
X1537580D1*
Y5119420D1*
X2125017D1*
X1894977Y1844417D2*
Y1848307D1*
X1505827D1*
X2125017Y5119420D2*
X2728330D1*
Y5579843D1*
X2982357D1*
Y5582993D1*
X1537580Y5579843D2*
Y5582993D1*
X2728330Y5579843D2*
Y5582993D1*
X1283553Y3325357D2*
Y2864933D1*
X1077157D1*
Y5055913D1*
X1140663Y5119420D1*
X1537580D1*
X1235017Y1982207D2*
X1077157D1*
Y2324950D1*
Y2864933D1*
X1505827Y1848307D2*
Y1982207D1*
X1235017D1*
X1077157Y2324950D2*
X1410390D1*
X1474073Y2388633D1*
Y2797333D1*
X1509973Y2833233D1*
X2125017D1*
X2800120D1*
X2839467Y2793887D1*
Y2040747D1*
X2861560D1*
X1664593Y5770363D2*
X1601087D1*
Y5802117D1*
X1537580D1*
Y5772993D1*
X1140663Y5770363D2*
X1283553D1*
Y5772993D1*
X1632840Y2182237D2*
Y2661343D1*
X1677663Y2706167D1*
X2426673D1*
X1362937Y3722273D2*
Y2436263D1*
X2125017Y5754487D2*
D14*
Y5436953D1*
X2585440Y3849287D2*
D13*
X2125017D1*
Y3849420D1*
X3051560Y2040747D2*
Y3330753D1*
X2929777Y3452537D1*
X3051560Y2040747D2*
Y1929123D1*
X3035307Y1912870D1*
X2805190D1*
X2774843Y1882527D1*
Y1787927D1*
X2791293Y1771477D1*
X2125017Y3341233D2*
X2695897D1*
X2728330Y3308800D1*
Y3198343D1*
X2140893Y1166130D2*
X2109310Y1197713D1*
Y1531293D1*
Y1682173D1*
Y1531293D2*
X1474073D1*
X1442320Y1499540D1*
X1188293D1*
X2125017Y3087233D2*
X2633070D1*
X2506057Y2579153D2*
Y2579233D1*
X2125017D1*
Y4865420D2*
X1601087D1*
Y4865393D1*
X2125017Y4611420D2*
X1521703D1*
Y4611367D1*
X2125017Y4357420D2*
X1680470D1*
Y4357340D1*
X1759853Y4103313D2*
X1823360D1*
X1823467Y4103420D1*
X2125017D1*
D34*
X1918620Y3595260D3*
X1874487Y2325130D3*
X2929777Y3452537D3*
X2728330Y3198343D3*
X1188293Y1499540D3*
X2633070Y3087233D3*
X2506057Y2579153D3*
X1442320Y3595260D3*
X2601317Y5770363D3*
X2755523Y1562970D3*
X1998003Y1166130D3*
X2363167Y1451910D3*
X3125247Y5770363D3*
X1283553Y3325357D3*
X1664593Y5770363D3*
X1140663D3*
X2426673Y2706167D3*
X1632840Y2182237D3*
X1362937Y2436263D3*
Y3722273D3*
X2585440Y3849287D3*
X2109310Y1682173D3*
X2140893Y1166130D3*
X1601087Y4865393D3*
X1521703Y4611367D3*
X1680470Y4357340D3*
X1759853Y4103313D3*
D16*
X2966480Y1483663D3*
Y1193663D3*
X1235017Y1982207D3*
Y1692207D3*
D17*
X1505827Y1658307D3*
Y1848307D3*
X2982357Y5772993D3*
Y5582993D3*
X2728330Y5772993D3*
Y5582993D3*
X1537580Y5772993D3*
Y5582993D3*
X1283553Y5772993D3*
Y5582993D3*
D19*
X2125017Y5436953D3*
X1870990Y5452830D3*
D20*
X2861560Y2040747D3*
X3051560D3*
D22*
X1894977Y1614417D3*
Y1844417D3*
Y2074417D3*
D75*
X2474977Y1844417D3*
D24*
X2125017Y5119420D3*
Y3341233D3*
Y2579233D3*
Y2325130D3*
Y3087233D3*
Y2833233D3*
Y4865420D3*
Y4103420D3*
Y3849420D3*
Y3595420D3*
Y4611420D3*
Y4357420D3*
D27*
Y5754487D3*
X2380017Y5786207D3*
X1870017D3*
D78*
X2918850Y3928670D3*
D32*
X1554303Y1287171D3*
X2694303D3*
D33*
X3108827Y1771477D3*
X2791293D3*
M02*
