G04 DipTrace 3.3.1.1*
G04 BottomSilk.gbr*
%MOMM*%
G04 #@! TF.FileFunction,Legend,Bot*
G04 #@! TF.Part,Single*
%ADD10C,0.25*%
%ADD15O,0.50008X0.49995*%
%ADD21O,0.39105X0.39124*%
%ADD23C,0.1*%
%ADD71C,0.11765*%
%ADD73C,0.19608*%
%FSLAX35Y35*%
G04*
G71*
G90*
G75*
G01*
G04 BotSilk*
%LPD*%
D15*
X2966480Y1628666D3*
X3106480Y1363648D2*
D10*
Y1313653D1*
X2826480Y1363648D2*
Y1313653D1*
D15*
X1235017Y2127209D3*
X1375017Y1862192D2*
D10*
Y1812197D1*
X1095017Y1862192D2*
Y1812197D1*
X1440877Y1553253D2*
X1570777D1*
D21*
X1818287Y1517060D3*
X2045017Y1514421D2*
D10*
Y2174388D1*
X2324973Y1514421D2*
Y2174388D1*
X2045017D2*
X2324973D1*
X2045017Y1514421D2*
X2324973D1*
X1902767Y5214672D2*
D23*
X2331393D1*
Y2229868D1*
X1902767D1*
Y5214672D1*
X2997673Y1835013D2*
D10*
X2902447D1*
Y1707929D1*
X2997673D1*
Y1835013D1*
X3148896Y1706866D2*
Y1621967D1*
X2752621D1*
X2753449Y1707516D1*
X2751275Y1832267D2*
Y1917167D1*
X3147551D1*
X3146723Y1831618D1*
X2796234Y1083475D2*
D71*
X2799856Y1090719D1*
X2807184Y1098047D1*
X2814428Y1101669D1*
X2829000D1*
X2836328Y1098047D1*
X2843572Y1090719D1*
X2847278Y1083475D1*
X2850900Y1072525D1*
Y1054247D1*
X2847278Y1043381D1*
X2843572Y1036053D1*
X2836328Y1028809D1*
X2829000Y1025103D1*
X2814428D1*
X2807184Y1028809D1*
X2799856Y1036053D1*
X2796234Y1043381D1*
X2772705Y1087012D2*
X2765377Y1090719D1*
X2754427Y1101584D1*
Y1025103D1*
X3019326Y2190867D2*
X2986561D1*
X2975611Y2194573D1*
X2971905Y2198195D1*
X2968283Y2205439D1*
Y2212767D1*
X2971905Y2220011D1*
X2975611Y2223717D1*
X2986561Y2227339D1*
X3019326D1*
Y2150773D1*
X2993805Y2190867D2*
X2968283Y2150773D1*
X2926559Y2227254D2*
X2937425Y2223632D1*
X2941131Y2216389D1*
Y2209061D1*
X2937425Y2201817D1*
X2930181Y2198111D1*
X2915609Y2194489D1*
X2904659Y2190867D1*
X2897415Y2183539D1*
X2893794Y2176295D1*
Y2165345D1*
X2897415Y2158101D1*
X2901037Y2154395D1*
X2911987Y2150773D1*
X2926559D1*
X2937425Y2154395D1*
X2941131Y2158101D1*
X2944753Y2165345D1*
Y2176295D1*
X2941131Y2183539D1*
X2933803Y2190867D1*
X2922937Y2194489D1*
X2908365Y2198111D1*
X2901037Y2201817D1*
X2897415Y2209061D1*
Y2216389D1*
X2901037Y2223632D1*
X2911987Y2227254D1*
X2926559D1*
X2263479Y1440780D2*
Y1386115D1*
X2259857Y1375165D1*
X2252529Y1367921D1*
X2241579Y1364215D1*
X2234335D1*
X2223385Y1367921D1*
X2216057Y1375165D1*
X2212435Y1386115D1*
Y1440780D1*
X2188906Y1426124D2*
X2181578Y1429830D1*
X2170628Y1440696D1*
Y1364215D1*
X1506899Y2011184D2*
X1510521Y2018428D1*
X1517849Y2025756D1*
X1525093Y2029378D1*
X1539665D1*
X1546993Y2025756D1*
X1554237Y2018428D1*
X1557943Y2011184D1*
X1561565Y2000234D1*
Y1981956D1*
X1557943Y1971091D1*
X1554237Y1963763D1*
X1546993Y1956519D1*
X1539665Y1952813D1*
X1525093D1*
X1517849Y1956519D1*
X1510521Y1963763D1*
X1506899Y1971091D1*
X1476041Y2029294D2*
X1436032D1*
X1457848Y2000150D1*
X1446898D1*
X1439654Y1996528D1*
X1436032Y1992906D1*
X1432326Y1981956D1*
Y1974713D1*
X1436032Y1963763D1*
X1443276Y1956434D1*
X1454226Y1952813D1*
X1465176D1*
X1476041Y1956434D1*
X1479663Y1960141D1*
X1483370Y1967384D1*
X3038605Y5456853D2*
X3005839D1*
X2994889Y5460559D1*
X2991183Y5464181D1*
X2987561Y5471425D1*
Y5478753D1*
X2991183Y5485997D1*
X2994889Y5489703D1*
X3005839Y5493325D1*
X3038605D1*
Y5416759D1*
X3013083Y5456853D2*
X2987561Y5416759D1*
X2927560D2*
Y5493241D1*
X2964031Y5442281D1*
X2909366D1*
X2788516Y5453346D2*
X2755750D1*
X2744800Y5457053D1*
X2741094Y5460674D1*
X2737472Y5467918D1*
Y5475246D1*
X2741094Y5482490D1*
X2744800Y5486196D1*
X2755750Y5489818D1*
X2788516D1*
Y5413253D1*
X2762994Y5453346D2*
X2737472Y5413253D1*
X2670227Y5489734D2*
X2706615D1*
X2710237Y5456968D1*
X2706615Y5460590D1*
X2695665Y5464296D1*
X2684799D1*
X2673849Y5460590D1*
X2666521Y5453346D1*
X2662899Y5442396D1*
Y5435153D1*
X2666521Y5424203D1*
X2673849Y5416874D1*
X2684799Y5413253D1*
X2695665D1*
X2706615Y5416874D1*
X2710237Y5420581D1*
X2713943Y5427824D1*
X1597473Y5462243D2*
X1564708D1*
X1553758Y5465949D1*
X1550051Y5469571D1*
X1546429Y5476815D1*
Y5484143D1*
X1550051Y5491387D1*
X1553758Y5495093D1*
X1564708Y5498715D1*
X1597473D1*
Y5422149D1*
X1571951Y5462243D2*
X1546429Y5422149D1*
X1479184Y5487765D2*
X1482806Y5495009D1*
X1493756Y5498631D1*
X1501000D1*
X1511950Y5495009D1*
X1519278Y5484059D1*
X1522900Y5465865D1*
Y5447671D1*
X1519278Y5433099D1*
X1511950Y5425771D1*
X1501000Y5422149D1*
X1497378D1*
X1486512Y5425771D1*
X1479184Y5433099D1*
X1475562Y5444049D1*
Y5447671D1*
X1479184Y5458621D1*
X1486512Y5465865D1*
X1497378Y5469487D1*
X1501000D1*
X1511950Y5465865D1*
X1519278Y5458621D1*
X1522900Y5447671D1*
X1331276Y5462243D2*
X1298510D1*
X1287560Y5465949D1*
X1283854Y5469571D1*
X1280232Y5476815D1*
Y5484143D1*
X1283854Y5491387D1*
X1287560Y5495093D1*
X1298510Y5498715D1*
X1331276D1*
Y5422149D1*
X1305754Y5462243D2*
X1280232Y5422149D1*
X1242131D2*
X1205659Y5498631D1*
X1256703D1*
X2539533Y4902382D2*
Y4825816D1*
X2565055Y4902382D2*
X2514011D1*
X2435816Y4884188D2*
X2439438Y4891432D1*
X2446766Y4898760D1*
X2454009Y4902382D1*
X2468581D1*
X2475909Y4898760D1*
X2483153Y4891432D1*
X2486859Y4884188D1*
X2490481Y4873238D1*
Y4854960D1*
X2486859Y4844094D1*
X2483153Y4836766D1*
X2475909Y4829522D1*
X2468581Y4825816D1*
X2454009D1*
X2446766Y4829522D1*
X2439438Y4836766D1*
X2435816Y4844094D1*
X2412286Y4902382D2*
Y4825816D1*
X2361242Y4902382D2*
X2412286Y4851338D1*
X2394092Y4869616D2*
X2361242Y4825816D1*
X2575920Y5156408D2*
X2546777Y5079843D1*
X2517633Y5156408D1*
X2439438Y5138214D2*
X2443059Y5145458D1*
X2450388Y5152786D1*
X2457631Y5156408D1*
X2472203D1*
X2479531Y5152786D1*
X2486775Y5145458D1*
X2490481Y5138214D1*
X2494103Y5127264D1*
Y5108986D1*
X2490481Y5098121D1*
X2486775Y5090793D1*
X2479531Y5083549D1*
X2472203Y5079843D1*
X2457631D1*
X2450388Y5083549D1*
X2443059Y5090793D1*
X2439438Y5098121D1*
X2361242Y5138214D2*
X2364864Y5145458D1*
X2372192Y5152786D1*
X2379436Y5156408D1*
X2394008D1*
X2401336Y5152786D1*
X2408580Y5145458D1*
X2412286Y5138214D1*
X2415908Y5127264D1*
Y5108986D1*
X2412286Y5098121D1*
X2408580Y5090793D1*
X2401336Y5083549D1*
X2394008Y5079843D1*
X2379436D1*
X2372192Y5083549D1*
X2364864Y5090793D1*
X2361242Y5098121D1*
X2543155Y4648355D2*
Y4571789D1*
X2568677Y4648355D2*
X2517633D1*
X2435816Y4571789D2*
Y4648355D1*
X2464959Y4571789D1*
X2494103Y4648355D1*
Y4571789D1*
X2361242Y4637405D2*
X2368486Y4644733D1*
X2379436Y4648355D1*
X2394008D1*
X2404958Y4644733D1*
X2412286Y4637405D1*
Y4630161D1*
X2408580Y4622833D1*
X2404958Y4619211D1*
X2397714Y4615589D1*
X2375814Y4608261D1*
X2368486Y4604639D1*
X2364864Y4600933D1*
X2361242Y4593689D1*
Y4582739D1*
X2368486Y4575495D1*
X2379436Y4571789D1*
X2394008D1*
X2404958Y4575495D1*
X2412286Y4582739D1*
X2561433Y4354234D2*
X2528583D1*
X2517717Y4357856D1*
X2514011Y4361563D1*
X2510389Y4368806D1*
Y4379756D1*
X2514011Y4387000D1*
X2517717Y4390706D1*
X2528583Y4394328D1*
X2561433D1*
Y4317763D1*
X2486859Y4394328D2*
Y4317763D1*
X2454009D1*
X2443059Y4321469D1*
X2439438Y4325091D1*
X2435816Y4332334D1*
Y4343284D1*
X2439438Y4350613D1*
X2443059Y4354234D1*
X2454009Y4357856D1*
X2443059Y4361563D1*
X2439438Y4365184D1*
X2435816Y4372428D1*
Y4379756D1*
X2439438Y4387000D1*
X2443059Y4390706D1*
X2454009Y4394328D1*
X2486859D1*
Y4357856D2*
X2454009D1*
X2397714Y4317763D2*
X2361242Y4394244D1*
X2412286D1*
X2557727Y4100208D2*
X2524877D1*
X2514011Y4103830D1*
X2510305Y4107536D1*
X2506683Y4114780D1*
Y4125730D1*
X2510305Y4132974D1*
X2514011Y4136680D1*
X2524877Y4140302D1*
X2557727D1*
Y4063736D1*
X2483153Y4140302D2*
Y4063736D1*
X2450303D1*
X2439353Y4067442D1*
X2435731Y4071064D1*
X2432109Y4078308D1*
Y4089258D1*
X2435731Y4096586D1*
X2439353Y4100208D1*
X2450303Y4103830D1*
X2439353Y4107536D1*
X2435731Y4111158D1*
X2432109Y4118402D1*
Y4125730D1*
X2435731Y4132974D1*
X2439353Y4136680D1*
X2450303Y4140302D1*
X2483153D1*
Y4103830D2*
X2450303D1*
X2364864Y4129352D2*
X2368486Y4136595D1*
X2379436Y4140217D1*
X2386680D1*
X2397630Y4136595D1*
X2404958Y4125645D1*
X2408580Y4107452D1*
Y4089258D1*
X2404958Y4074686D1*
X2397630Y4067358D1*
X2386680Y4063736D1*
X2383058D1*
X2372192Y4067358D1*
X2364864Y4074686D1*
X2361242Y4085636D1*
Y4089258D1*
X2364864Y4100208D1*
X2372192Y4107452D1*
X2383058Y4111074D1*
X2386680D1*
X2397630Y4107452D1*
X2404958Y4100208D1*
X2408580Y4089258D1*
X2561433Y3849803D2*
X2528667D1*
X2517717Y3853509D1*
X2514011Y3857131D1*
X2510389Y3864375D1*
Y3871703D1*
X2514011Y3878947D1*
X2517717Y3882653D1*
X2528667Y3886275D1*
X2561433D1*
Y3809709D1*
X2535911Y3849803D2*
X2510389Y3809709D1*
X2435816Y3875325D2*
X2443059Y3882653D1*
X2454009Y3886275D1*
X2468581D1*
X2479531Y3882653D1*
X2486859Y3875325D1*
Y3868081D1*
X2483153Y3860753D1*
X2479531Y3857131D1*
X2472288Y3853509D1*
X2450388Y3846181D1*
X2443059Y3842559D1*
X2439438Y3838853D1*
X2435816Y3831609D1*
Y3820659D1*
X2443059Y3813415D1*
X2454009Y3809709D1*
X2468581D1*
X2479531Y3813415D1*
X2486859Y3820659D1*
X2386764Y3886275D2*
Y3809709D1*
X2412286Y3886275D2*
X2361242D1*
X2510389Y3614054D2*
X2514011Y3621298D1*
X2521339Y3628626D1*
X2528583Y3632248D1*
X2543155D1*
X2550483Y3628626D1*
X2557727Y3621298D1*
X2561433Y3614054D1*
X2565055Y3603104D1*
Y3584826D1*
X2561433Y3573961D1*
X2557727Y3566633D1*
X2550483Y3559389D1*
X2543155Y3555683D1*
X2528583D1*
X2521339Y3559389D1*
X2514011Y3566633D1*
X2510389Y3573961D1*
Y3584826D1*
X2528583D1*
X2435816Y3632248D2*
Y3555683D1*
X2486859Y3632248D1*
Y3555683D1*
X2412286Y3632248D2*
Y3555683D1*
X2386764D1*
X2375814Y3559389D1*
X2368486Y3566633D1*
X2364864Y3573961D1*
X2361242Y3584826D1*
Y3603104D1*
X2364864Y3614054D1*
X2368486Y3621298D1*
X2375814Y3628626D1*
X2386764Y3632248D1*
X2412286D1*
X2461338Y3378222D2*
Y3301656D1*
X2486859Y3378222D2*
X2435816D1*
X2412286D2*
X2361242Y3301656D1*
Y3378222D2*
X2412286Y3301656D1*
X2486859Y3087723D2*
X2454094D1*
X2443144Y3091429D1*
X2439438Y3095051D1*
X2435816Y3102295D1*
Y3109623D1*
X2439438Y3116867D1*
X2443144Y3120573D1*
X2454094Y3124195D1*
X2486859D1*
Y3047629D1*
X2461338Y3087723D2*
X2435816Y3047629D1*
X2412286Y3124195D2*
X2361242Y3047629D1*
Y3124195D2*
X2412286Y3047629D1*
X2575920Y2870168D2*
X2546777Y2793603D1*
X2517633Y2870168D1*
X2439438Y2851974D2*
X2443059Y2859218D1*
X2450388Y2866546D1*
X2457631Y2870168D1*
X2472203D1*
X2479531Y2866546D1*
X2486775Y2859218D1*
X2490481Y2851974D1*
X2494103Y2841024D1*
Y2822746D1*
X2490481Y2811881D1*
X2486775Y2804553D1*
X2479531Y2797309D1*
X2472203Y2793603D1*
X2457631D1*
X2450388Y2797309D1*
X2443059Y2804553D1*
X2439438Y2811881D1*
X2361242Y2851974D2*
X2364864Y2859218D1*
X2372192Y2866546D1*
X2379436Y2870168D1*
X2394008D1*
X2401336Y2866546D1*
X2408580Y2859218D1*
X2412286Y2851974D1*
X2415908Y2841024D1*
Y2822746D1*
X2412286Y2811881D1*
X2408580Y2804553D1*
X2401336Y2797309D1*
X2394008Y2793603D1*
X2379436D1*
X2372192Y2797309D1*
X2364864Y2804553D1*
X2361242Y2811881D1*
X2561433Y2579670D2*
X2528667D1*
X2517717Y2583376D1*
X2514011Y2586998D1*
X2510389Y2594242D1*
Y2601570D1*
X2514011Y2608814D1*
X2517717Y2612520D1*
X2528667Y2616142D1*
X2561433D1*
Y2539576D1*
X2535911Y2579670D2*
X2510389Y2539576D1*
X2461338Y2616142D2*
Y2539576D1*
X2486859Y2616142D2*
X2435816D1*
X2361242Y2605192D2*
X2368486Y2612520D1*
X2379436Y2616142D1*
X2394008D1*
X2404958Y2612520D1*
X2412286Y2605192D1*
Y2597948D1*
X2408580Y2590620D1*
X2404958Y2586998D1*
X2397714Y2583376D1*
X2375814Y2576048D1*
X2368486Y2572426D1*
X2364864Y2568720D1*
X2361242Y2561476D1*
Y2550526D1*
X2368486Y2543282D1*
X2379436Y2539576D1*
X2394008D1*
X2404958Y2543282D1*
X2412286Y2550526D1*
X2510389Y2343921D2*
X2514011Y2351165D1*
X2521339Y2358493D1*
X2528583Y2362115D1*
X2543155D1*
X2550483Y2358493D1*
X2557727Y2351165D1*
X2561433Y2343921D1*
X2565055Y2332971D1*
Y2314693D1*
X2561433Y2303827D1*
X2557727Y2296499D1*
X2550483Y2289255D1*
X2543155Y2285549D1*
X2528583D1*
X2521339Y2289255D1*
X2514011Y2296499D1*
X2510389Y2303827D1*
X2461338Y2362115D2*
Y2285549D1*
X2486859Y2362115D2*
X2435816D1*
X2361242Y2351165D2*
X2368486Y2358493D1*
X2379436Y2362115D1*
X2394008D1*
X2404958Y2358493D1*
X2412286Y2351165D1*
Y2343921D1*
X2408580Y2336593D1*
X2404958Y2332971D1*
X2397714Y2329349D1*
X2375814Y2322021D1*
X2368486Y2318399D1*
X2364864Y2314693D1*
X2361242Y2307449D1*
Y2296499D1*
X2368486Y2289255D1*
X2379436Y2285549D1*
X2394008D1*
X2404958Y2289255D1*
X2412286Y2296499D1*
X2857649Y4390729D2*
D73*
X2985258D1*
X2857649Y4342156D1*
X2985258Y4293583D1*
X2857649D1*
X2985258Y4466445D2*
X2979222Y4454232D1*
X2967008Y4442158D1*
X2954935Y4435982D1*
X2936685Y4429945D1*
X2906222D1*
X2888112Y4435982D1*
X2875899Y4442158D1*
X2863826Y4454232D1*
X2857649Y4466445D1*
Y4490732D1*
X2863826Y4502805D1*
X2875899Y4515018D1*
X2888112Y4521055D1*
X2906222Y4527091D1*
X2936685D1*
X2954935Y4521055D1*
X2967008Y4515018D1*
X2979222Y4502805D1*
X2985258Y4490732D1*
Y4466445D1*
Y4566307D2*
X2857649D1*
Y4608843D1*
X2863826Y4627093D1*
X2875899Y4639307D1*
X2888112Y4645343D1*
X2906222Y4651380D1*
X2936685D1*
X2954935Y4645343D1*
X2967008Y4639307D1*
X2979222Y4627093D1*
X2985258Y4608843D1*
Y4566307D1*
Y4690596D2*
X2857649D1*
X2985258Y4775669D2*
X2900185Y4690596D1*
X2930649Y4720919D2*
X2857649Y4775669D1*
Y4912171D2*
X2985258Y4863457D1*
X2857649Y4814884D1*
X2900185Y4833134D2*
Y4893921D1*
X2857649Y5048533D2*
X2985258D1*
X2857649Y4999960D1*
X2985258Y4951387D1*
X2857649D1*
X2869862Y5093785D2*
X2863685Y5087748D1*
X2857649Y5093785D1*
X2863685Y5099962D1*
X2869862Y5093785D1*
X2924472Y5139178D2*
Y5193787D1*
X2930648Y5212037D1*
X2936685Y5218214D1*
X2948758Y5224250D1*
X2960972D1*
X2973045Y5218214D1*
X2979222Y5212037D1*
X2985258Y5193787D1*
Y5139177D1*
X2857649Y5139178D1*
X2924472Y5181714D2*
X2857649Y5224251D1*
X2985258Y5263466D2*
X2894148D1*
X2875898Y5269503D1*
X2863825Y5281716D1*
X2857648Y5299966D1*
Y5312039D1*
X2863825Y5330289D1*
X2875899Y5342503D1*
X2894149Y5348539D1*
X2985258D1*
X1252872Y2233458D2*
D71*
X1256494Y2240702D1*
X1263822Y2248030D1*
X1271066Y2251652D1*
X1285638D1*
X1292966Y2248030D1*
X1300210Y2240702D1*
X1303916Y2233458D1*
X1307538Y2222508D1*
Y2204230D1*
X1303916Y2193364D1*
X1300210Y2186036D1*
X1292966Y2178792D1*
X1285638Y2175086D1*
X1271066D1*
X1263822Y2178792D1*
X1256494Y2186036D1*
X1252872Y2193364D1*
X1225637Y2233374D2*
Y2236995D1*
X1222015Y2244324D1*
X1218393Y2247945D1*
X1211065Y2251567D1*
X1196493D1*
X1189249Y2247945D1*
X1185627Y2244324D1*
X1181921Y2236995D1*
Y2229752D1*
X1185627Y2222424D1*
X1192871Y2211558D1*
X1229343Y2175086D1*
X1178299D1*
M02*
