M48
METRIC,0000.00
T01C0.3
T02C0.55
T03C0.9
T04C1.0
%
T01
X+001442Y+003595
X+001363Y+003722
X+001284Y+003325
X+001919Y+003595
X+001760Y+004103
X+001680Y+004357
X+001522Y+004611
X+001601Y+004865
X+001665Y+005770
X+001141Y+005770
X+002601Y+005770
X+003125Y+005770
X+002585Y+003849
X+002930Y+003453
X+002728Y+003198
X+002633Y+003087
X+002427Y+002706
X+002506Y+002579
X+001874Y+002325
X+001633Y+002182
X+001363Y+002436
X+001188Y+001500
X+001998Y+001166
X+002141Y+001166
X+002363Y+001452
X+002109Y+001682
X+002756Y+001563
T02
X+001928Y+001288
X+002328Y+001288
T03
X+002125Y+005437
X+001871Y+005453
T04
X+001554Y+001177G85X+001554Y+001397
X+002694Y+001177G85X+002694Y+001397
T00
M30
