G04 DipTrace 3.3.1.1*
G04 Top.gbr*
%MOMM*%
G04 #@! TF.FileFunction,Copper,L1,Top*
G04 #@! TF.Part,Single*
G04 #@! TA.AperFunction,Conductor*
%ADD13C,0.2*%
%ADD14C,0.9*%
%ADD17R,1.5X1.3*%
%ADD18R,1.6X1.2*%
G04 #@! TA.AperFunction,ComponentPad*
%ADD19C,1.5*%
%ADD25R,2.3X0.71*%
%ADD26R,0.71X2.3*%
%ADD27R,0.9X4.0*%
%ADD28R,0.4X1.35*%
%ADD29R,1.5X1.4*%
%ADD30R,2.3X1.3*%
%ADD31R,0.5X2.1*%
G04 #@! TA.AperFunction,ComponentPad*
%ADD32O,1.65X4.0*%
G04 #@! TA.AperFunction,ViaPad*
%ADD34C,0.8*%
%FSLAX35Y35*%
G04*
G71*
G90*
G75*
G01*
G04 Top*
%LPD*%
X1362937Y1213760D2*
D13*
X1188293D1*
X2694303Y1287170D2*
X2712453D1*
Y1073273D1*
X2503003D1*
X1123387Y3579337D2*
X1442320D1*
Y3595260D1*
X1124787Y3452237D2*
X1442320D1*
Y3579337D1*
X1753003Y1073273D2*
X2252027D1*
Y1340773D1*
X1554303Y1287170D2*
Y1073273D1*
X1753003D1*
X1188293Y1213760D2*
X1554303D1*
Y1287170D1*
Y1394657D1*
X1706813Y1547167D1*
X1774303D1*
X2503003Y1073273D2*
X2252027D1*
X1918620Y3595260D2*
Y5198803D1*
X1870990Y5246433D1*
Y5452830D1*
D14*
Y5786207D1*
X1870017D1*
X1870990Y5452830D2*
D13*
Y5230557D1*
X2380017D1*
Y5786207D1*
X2725017Y5837207D2*
X2601317D1*
Y5770363D1*
X1874487Y1944837D2*
Y2325130D1*
X1998003Y1166130D2*
Y1340773D1*
X2474303Y1547167D2*
Y1682173D1*
X2755523D1*
Y1562970D1*
X2363167Y1451910D2*
Y1690060D1*
X2474303D1*
Y1547167D1*
X1474073Y1801197D2*
Y1785320D1*
X2633070D1*
Y1948253D1*
X2636487Y1944837D1*
X3125247Y5770363D2*
Y5833870D1*
X2975017D1*
Y5837207D1*
X1123487Y3325437D2*
X1283553D1*
Y3325357D1*
X1525017Y5837207D2*
X1664593D1*
Y5770363D1*
X1140663D2*
Y5837207D1*
X1275017D1*
X2426673Y2706167D2*
Y3944547D1*
X2926190D1*
X3172877Y4191233D1*
Y5537207D1*
X2975017D1*
X1124787Y2182237D2*
X1632840D1*
X2725017Y5537207D2*
Y5412847D1*
X3125247D1*
Y4214450D1*
X2918850Y4008053D1*
X2236153D1*
X2029757Y3801657D1*
Y2753797D1*
X1585397Y2309437D1*
X1123487D1*
X1124787Y2436237D2*
X1362937Y2436263D1*
X1525017Y5537207D2*
Y5624160D1*
X1489950Y5659227D1*
X1188293D1*
X1140663Y5611597D1*
Y3788040D1*
X1206430Y3722273D1*
X1362937D1*
X1275017Y5537207D2*
Y5053327D1*
X1315027Y5013317D1*
X1770697D1*
X1839237Y4944777D1*
Y2780863D1*
X1621810Y2563437D1*
X1123487D1*
X2125017Y5436953D2*
D14*
Y5738610D1*
X2585440Y3849287D2*
D13*
X2877017D1*
X2918850Y3807453D1*
Y3452537D1*
X3123287D1*
X2929777D2*
X3123287D1*
X2728330Y3198343D2*
Y2372757D1*
X2791450Y2309637D1*
X3121887D1*
X2024303Y1547167D2*
X2088010D1*
X2128010Y1507167D1*
Y1468273D1*
X2128003Y1468267D1*
Y1340773D1*
X1474073Y1611197D2*
X1599290D1*
X1709907Y1721813D1*
X2024303D1*
Y1547167D1*
X1299430Y1611197D2*
X1474073D1*
X1362937Y1403760D2*
Y1611197D1*
X1299430D1*
X2109310Y1682173D2*
X2224303D1*
Y1547167D1*
X1188293Y1403760D2*
Y1611197D1*
X1124787D1*
X2140893Y1166130D2*
X2063003Y1244020D1*
Y1340773D1*
X1188293Y1499540D2*
Y1403760D1*
X1620487Y1944837D2*
Y2007593D1*
X1315307D1*
X1299430Y1991717D1*
Y1801197D1*
X1124787D2*
X1140663D1*
Y1944087D1*
X1299430Y2102853D1*
X1747487D1*
Y1944837D1*
X2633070Y3087233D2*
Y2245743D1*
X2696277Y2182537D1*
X3123287D1*
X3121887Y3325637D2*
X2506057D1*
Y2579153D1*
X1601087Y4865393D2*
Y3134837D1*
X1537587Y3071337D1*
X1123387D1*
X1521703Y4611367D2*
Y3261850D1*
X1458090Y3198237D1*
X1124787D1*
X1680470Y4357340D2*
Y3023700D1*
X1601007Y2944237D1*
X1124787D1*
X1759853Y4103313D2*
Y2912563D1*
X1664727Y2817437D1*
X1123487D1*
D34*
X1918620Y3595260D3*
X1874487Y2325130D3*
X2929777Y3452537D3*
X2728330Y3198343D3*
X1188293Y1499540D3*
X2633070Y3087233D3*
X2506057Y2579153D3*
X1442320Y3595260D3*
X2601317Y5770363D3*
X2755523Y1562970D3*
X1998003Y1166130D3*
X2363167Y1451910D3*
X3125247Y5770363D3*
X1283553Y3325357D3*
X1664593Y5770363D3*
X1140663D3*
X2426673Y2706167D3*
X1632840Y2182237D3*
X1362937Y2436263D3*
Y3722273D3*
X2585440Y3849287D3*
X2109310Y1682173D3*
X2140893Y1166130D3*
X1601087Y4865393D3*
X1521703Y4611367D3*
X1680470Y4357340D3*
X1759853Y4103313D3*
D17*
X1362937Y1213760D3*
Y1403760D3*
X1188293Y1213760D3*
Y1403760D3*
D18*
X2725017Y5537207D3*
Y5837207D3*
X2975017Y5537207D3*
Y5837207D3*
X1525017Y5537207D3*
Y5837207D3*
X1275017Y5537207D3*
Y5837207D3*
D19*
X2125017Y5436953D3*
X1870990Y5452830D3*
D17*
X1299430Y1801197D3*
Y1611197D3*
X1124787Y1801197D3*
Y1611197D3*
X1474073Y1801197D3*
Y1611197D3*
D25*
X1124787Y2182237D3*
X1123487Y2309437D3*
X1124787Y2436237D3*
X1123487Y2563437D3*
X1124787Y2690237D3*
X1123487Y2817437D3*
X1124787Y2944237D3*
X1123387Y3071337D3*
X3123287Y2182537D3*
X3121887Y2309637D3*
X3123287Y2436537D3*
X3121887Y2563637D3*
X3123287Y2690537D3*
X3121887Y2817637D3*
X3123287Y2944537D3*
X3121887Y3071637D3*
D26*
X1620487Y1944837D3*
X1747487D3*
X1874487D3*
X2001487D3*
X2128487D3*
X2255487D3*
X2382487D3*
X2509487D3*
X2636487D3*
D25*
X3123287Y3198537D3*
X3121887Y3325637D3*
X3123287Y3452537D3*
X3121887Y3579637D3*
X1124787Y3198237D3*
X1123487Y3325437D3*
X1124787Y3452237D3*
X1123387Y3579337D3*
D27*
X2380017Y5786207D3*
X1870017D3*
X2125017Y5738610D3*
D28*
X1998003Y1340773D3*
X2063003D3*
X2128003D3*
X2193003D3*
D29*
X1798003Y1318273D3*
X2458003D3*
D30*
X1753003Y1073273D3*
X2503003D3*
D28*
X2252027Y1340773D3*
D31*
X2474303Y1547168D3*
X2224303D3*
X2024303D3*
X1774303D3*
D32*
X1554303Y1287171D3*
X2694303D3*
M02*
