G04 DipTrace 3.3.1.1*
G04 TopMask.gbr*
%MOMM*%
G04 #@! TF.FileFunction,Soldermask,Top*
G04 #@! TF.Part,Single*
%ADD25R,2.3X0.71*%
%ADD26R,0.71X2.3*%
%ADD36C,0.55*%
%ADD41O,1.85X4.2*%
%ADD43R,0.7X2.3*%
%ADD45R,2.5X1.5*%
%ADD47R,1.7X1.6*%
%ADD49R,0.6X1.55*%
%ADD51R,1.1X4.2*%
%ADD63C,1.7*%
%ADD65R,1.8X1.4*%
%ADD67R,1.7X1.5*%
%FSLAX35Y35*%
G04*
G71*
G90*
G75*
G01*
G04 TopMask*
%LPD*%
D67*
X1362937Y1213760D3*
Y1403760D3*
X1188293Y1213760D3*
Y1403760D3*
D65*
X2725017Y5537207D3*
Y5837207D3*
X2975017Y5537207D3*
Y5837207D3*
X1525017Y5537207D3*
Y5837207D3*
X1275017Y5537207D3*
Y5837207D3*
D63*
X2125017Y5436953D3*
X1870990Y5452830D3*
D67*
X1299430Y1801197D3*
Y1611197D3*
X1124787Y1801197D3*
Y1611197D3*
X1474073Y1801197D3*
Y1611197D3*
D25*
X1124787Y2182237D3*
X1123487Y2309437D3*
X1124787Y2436237D3*
X1123487Y2563437D3*
X1124787Y2690237D3*
X1123487Y2817437D3*
X1124787Y2944237D3*
X1123387Y3071337D3*
X3123287Y2182537D3*
X3121887Y2309637D3*
X3123287Y2436537D3*
X3121887Y2563637D3*
X3123287Y2690537D3*
X3121887Y2817637D3*
X3123287Y2944537D3*
X3121887Y3071637D3*
D26*
X1620487Y1944837D3*
X1747487D3*
X1874487D3*
X2001487D3*
X2128487D3*
X2255487D3*
X2382487D3*
X2509487D3*
X2636487D3*
D25*
X3123287Y3198537D3*
X3121887Y3325637D3*
X3123287Y3452537D3*
X3121887Y3579637D3*
X1124787Y3198237D3*
X1123487Y3325437D3*
X1124787Y3452237D3*
X1123387Y3579337D3*
D51*
X2380017Y5786207D3*
X1870017D3*
X2125017Y5738610D3*
D49*
X1998003Y1340773D3*
X2063003D3*
X2128003D3*
X2193003D3*
D47*
X1798003Y1318273D3*
X2458003D3*
D45*
X1753003Y1073273D3*
X2503003D3*
D49*
X2252027Y1340773D3*
D36*
X1928003Y1288273D3*
X2328157Y1288257D3*
D43*
X2474303Y1547168D3*
X2224303D3*
X2024303D3*
X1774303D3*
D41*
X1554303Y1287171D3*
X2694303D3*
M02*
