G04 DipTrace 3.3.1.1*
G04 TopSilk.gbr*
%MOMM*%
G04 #@! TF.FileFunction,Legend,Top*
G04 #@! TF.Part,Single*
%ADD10C,0.25*%
%ADD23C,0.1*%
%ADD71C,0.11765*%
%ADD72C,0.07843*%
%ADD74C,0.31373*%
%FSLAX35Y35*%
G04*
G71*
G90*
G75*
G01*
G04 TopSilk*
%LPD*%
X1427887Y1108707D2*
D10*
X1297987D1*
X1253243D2*
X1123343D1*
G36*
X2661977Y5745755D2*
X2787097D1*
X2725977Y5616815D1*
D1*
X2661977Y5745755D1*
G37*
G36*
X2911977D2*
X3037097D1*
X2975977Y5616815D1*
D1*
X2911977Y5745755D1*
G37*
G36*
X1461977D2*
X1587097D1*
X1525977Y5616815D1*
D1*
X1461977Y5745755D1*
G37*
G36*
X1211977D2*
X1337097D1*
X1275977Y5616815D1*
D1*
X1211977Y5745755D1*
G37*
X1731730Y5987047D2*
D23*
X2500330D1*
Y5514013D1*
X1731730D1*
Y5987047D1*
X1632837Y991487D2*
X2617215D1*
Y1467787D1*
X1632837D1*
Y991487D1*
X2723298Y1050713D2*
D10*
Y-502814D1*
X1525308Y1050713D2*
Y-502814D1*
X2723298D1*
X1525308Y1017311D2*
X2723298D1*
X2474043Y1695240D2*
G02X2474043Y1695240I0J12223D01*
G01*
X1602657Y1630572D2*
D71*
Y1663337D1*
X1598951Y1674287D1*
X1595329Y1677994D1*
X1588085Y1681616D1*
X1580757D1*
X1573513Y1677994D1*
X1569807Y1674288D1*
X1566185Y1663338D1*
Y1630572D1*
X1642750D1*
X1602657Y1656094D2*
X1642751Y1681615D1*
X1566269Y1712473D2*
Y1752483D1*
X1595413Y1730667D1*
Y1741617D1*
X1599035Y1748861D1*
X1602657Y1752482D1*
X1613607Y1756189D1*
X1620851D1*
X1631801Y1752482D1*
X1639129Y1745239D1*
X1642751Y1734289D1*
Y1723339D1*
X1639129Y1712473D1*
X1635423Y1708851D1*
X1628179Y1705145D1*
X1271598Y1704982D2*
D72*
X1293442D1*
X1300742Y1707453D1*
X1303213Y1709867D1*
X1305627Y1714697D1*
Y1719582D1*
X1303213Y1724411D1*
X1300742Y1726882D1*
X1293442Y1729297D1*
X1271598D1*
Y1678253D1*
X1288613Y1704982D2*
X1305627Y1678253D1*
X1321314Y1719526D2*
X1326199Y1721997D1*
X1333499Y1729240D1*
Y1678253D1*
X1085112Y1706209D2*
X1106955D1*
X1114255Y1708679D1*
X1116726Y1711094D1*
X1119141Y1715923D1*
Y1720809D1*
X1116726Y1725638D1*
X1114255Y1728109D1*
X1106955Y1730523D1*
X1085112D1*
Y1679479D1*
X1102126Y1706209D2*
X1119141Y1679479D1*
X1137298Y1718338D2*
Y1720753D1*
X1139712Y1725638D1*
X1142127Y1728053D1*
X1147012Y1730467D1*
X1156727D1*
X1161556Y1728053D1*
X1163971Y1725638D1*
X1166442Y1720753D1*
Y1715923D1*
X1163971Y1711038D1*
X1159142Y1703794D1*
X1134827Y1679479D1*
X1168856D1*
X1214355Y1072594D2*
X1211941Y1077423D1*
X1207055Y1082309D1*
X1202226Y1084723D1*
X1192512D1*
X1187626Y1082309D1*
X1182797Y1077423D1*
X1180326Y1072594D1*
X1177912Y1065294D1*
Y1053109D1*
X1180326Y1045865D1*
X1182797Y1040979D1*
X1187626Y1036150D1*
X1192512Y1033679D1*
X1202226D1*
X1207055Y1036150D1*
X1211941Y1040979D1*
X1214355Y1045865D1*
X1259186Y1084667D2*
X1234927D1*
X1232512Y1062823D1*
X1234927Y1065238D1*
X1242227Y1067709D1*
X1249471D1*
X1256771Y1065238D1*
X1261656Y1060409D1*
X1264071Y1053109D1*
Y1048279D1*
X1261656Y1040979D1*
X1256771Y1036094D1*
X1249471Y1033679D1*
X1242227D1*
X1234927Y1036094D1*
X1232512Y1038565D1*
X1230042Y1043394D1*
X1412709Y1067937D2*
X1410294Y1072767D1*
X1405409Y1077652D1*
X1400580Y1080067D1*
X1390865D1*
X1385980Y1077652D1*
X1381150Y1072767D1*
X1378680Y1067937D1*
X1376265Y1060637D1*
Y1048452D1*
X1378680Y1041208D1*
X1381150Y1036323D1*
X1385980Y1031494D1*
X1390865Y1029023D1*
X1400580D1*
X1405409Y1031494D1*
X1410294Y1036323D1*
X1412709Y1041208D1*
X1452710Y1029023D2*
Y1080010D1*
X1428395Y1046037D1*
X1464839D1*
X2924345Y5419053D2*
Y5368009D1*
X2953489D1*
X2969175Y5419053D2*
Y5368009D1*
X3003204Y5419053D2*
Y5368009D1*
X2969175Y5394739D2*
X3003204D1*
X3018891Y5409283D2*
X3023776Y5411753D1*
X3031076Y5418997D1*
Y5368009D1*
X2654442Y5419053D2*
Y5368009D1*
X2683585D1*
X2699272Y5419053D2*
Y5368009D1*
X2733301Y5419053D2*
Y5368009D1*
X2699272Y5394739D2*
X2733301D1*
X2751458Y5406868D2*
Y5409283D1*
X2753873Y5414168D1*
X2756287Y5416583D1*
X2761173Y5418997D1*
X2770887D1*
X2775716Y5416583D1*
X2778131Y5414168D1*
X2780602Y5409283D1*
Y5404453D1*
X2778131Y5399568D1*
X2773302Y5392324D1*
X2748987Y5368009D1*
X2783016D1*
X1463692Y5419053D2*
Y5368009D1*
X1492835D1*
X1508522Y5419053D2*
Y5368009D1*
X1542551Y5419053D2*
Y5368009D1*
X1508522Y5394739D2*
X1542551D1*
X1563123Y5418997D2*
X1589796D1*
X1575252Y5399568D1*
X1582552D1*
X1587381Y5397153D1*
X1589796Y5394739D1*
X1592266Y5387439D1*
Y5382609D1*
X1589796Y5375309D1*
X1584966Y5370424D1*
X1577666Y5368009D1*
X1570366D1*
X1563123Y5370424D1*
X1560708Y5372895D1*
X1558237Y5377724D1*
X1209665Y5419053D2*
Y5368009D1*
X1238809D1*
X1254495Y5419053D2*
Y5368009D1*
X1288524Y5419053D2*
Y5368009D1*
X1254495Y5394739D2*
X1288524D1*
X1328525Y5368009D2*
Y5418997D1*
X1304211Y5385024D1*
X1340654D1*
X1491846Y4077378D2*
D74*
X1482187Y4096695D1*
X1462646Y4116236D1*
X1443329Y4125895D1*
X1404471D1*
X1384929Y4116236D1*
X1365612Y4096695D1*
X1355729Y4077378D1*
X1346071Y4048178D1*
Y3999436D1*
X1355729Y3970461D1*
X1365612Y3950919D1*
X1384929Y3931602D1*
X1404471Y3921719D1*
X1443329D1*
X1462646Y3931602D1*
X1482187Y3950919D1*
X1491846Y3970461D1*
X1700366Y4077378D2*
X1690708Y4096695D1*
X1671166Y4116236D1*
X1651849Y4125895D1*
X1612991D1*
X1593449Y4116236D1*
X1574133Y4096695D1*
X1564249Y4077378D1*
X1554591Y4048178D1*
Y3999436D1*
X1564249Y3970461D1*
X1574133Y3950919D1*
X1593449Y3931602D1*
X1612991Y3921719D1*
X1651849D1*
X1671166Y3931602D1*
X1690708Y3950919D1*
X1700366Y3970461D1*
X1772995Y4077153D2*
Y4086812D1*
X1782653Y4106353D1*
X1792311Y4116012D1*
X1811853Y4125670D1*
X1850711D1*
X1870028Y4116012D1*
X1879687Y4106353D1*
X1889570Y4086812D1*
Y4067495D1*
X1879687Y4047953D1*
X1860370Y4018978D1*
X1763111Y3921719D1*
X1899228D1*
X2078549Y4125670D2*
X1981515D1*
X1971857Y4038295D1*
X1981515Y4047953D1*
X2010715Y4057836D1*
X2039690D1*
X2068890Y4047953D1*
X2088432Y4028636D1*
X2098090Y3999436D1*
Y3980119D1*
X2088432Y3950919D1*
X2068890Y3931378D1*
X2039690Y3921719D1*
X2010715D1*
X1981515Y3931378D1*
X1971857Y3941261D1*
X1961973Y3960578D1*
X2180377Y4125670D2*
X2287069D1*
X2228894Y4047953D1*
X2258094D1*
X2277411Y4038295D1*
X2287069Y4028636D1*
X2296952Y3999436D1*
Y3980119D1*
X2287069Y3950919D1*
X2267752Y3931378D1*
X2238552Y3921719D1*
X2209352D1*
X2180377Y3931378D1*
X2170719Y3941261D1*
X2160836Y3960578D1*
X2408214Y4125670D2*
X2379239Y4116012D1*
X2369356Y4096695D1*
Y4077153D1*
X2379239Y4057836D1*
X2398556Y4047953D1*
X2437414Y4038295D1*
X2466614Y4028636D1*
X2485931Y4009095D1*
X2495590Y3989778D1*
Y3960578D1*
X2485931Y3941261D1*
X2476273Y3931378D1*
X2447073Y3921719D1*
X2408214D1*
X2379239Y3931378D1*
X2369356Y3941261D1*
X2359698Y3960578D1*
Y3989778D1*
X2369356Y4009095D1*
X2388898Y4028636D1*
X2417873Y4038295D1*
X2456731Y4047953D1*
X2476273Y4057836D1*
X2485931Y4077153D1*
Y4096695D1*
X2476273Y4116012D1*
X2447073Y4125670D1*
X2408214D1*
X2558335Y4018978D2*
X2645935D1*
X2674910Y4028636D1*
X2684793Y4038519D1*
X2694452Y4057836D1*
Y4087036D1*
X2684793Y4106353D1*
X2674910Y4116236D1*
X2645935Y4125895D1*
X2558335D1*
Y3921719D1*
X2912855D2*
X2834914Y4125895D1*
X2757197Y3921719D1*
X2786397Y3989778D2*
X2883655D1*
M02*
